<?xml version="1.0" standalone="no"?>
<!DOCTYPE svg PUBLIC "-//W3C//DTD SVG 20010904//EN"
 "http://www.w3.org/TR/2001/REC-SVG-20010904/DTD/svg10.dtd">
<svg version="1.0" xmlns="http://www.w3.org/2000/svg"
 width="716.000000pt" height="176.000000pt" viewBox="0 0 716.000000 176.000000"
 preserveAspectRatio="xMidYMid meet">
<metadata>
Created by potrace 1.16, written by Peter Selinger 2001-2019
</metadata>
<g transform="translate(0.000000,176.000000) scale(0.100000,-0.100000)"
fill="#000000" stroke="none">
<path d="M180 1338 c0 -283 5 -313 67 -428 l35 -64 -35 -66 c-62 -116 -67
-145 -67 -428 l0 -254 82 7 c247 22 477 110 638 245 l50 42 -43 33 c-75 58
-134 153 -157 256 -20 89 -9 330 18 399 27 69 85 145 139 185 23 16 42 32 42
35 0 3 -28 26 -62 52 -189 141 -380 212 -624 233 l-83 8 0 -255z"/>
<path d="M1608 1579 c-236 -31 -402 -96 -575 -227 l-62 -47 51 -45 c67 -58
121 -144 143 -223 25 -92 18 -349 -12 -423 -28 -72 -77 -139 -133 -183 l-49
-39 42 -34 c165 -134 374 -220 597 -248 46 -5 97 -10 113 -10 l29 0 -4 258
c-5 285 -14 335 -79 437 l-31 49 31 57 c70 127 73 149 79 432 l4 257 -38 -1
c-22 -1 -69 -5 -106 -10z"/>
<path d="M2635 1481 c-211 -61 -359 -219 -411 -436 -10 -44 -16 -112 -16 -185
0 -135 18 -224 67 -325 90 -186 255 -291 475 -302 166 -9 273 27 366 123 23
24 45 44 48 44 3 0 6 -13 6 -29 0 -15 3 -49 6 -75 l7 -46 103 0 104 0 0 340 0
340 -270 0 -270 0 0 -85 0 -85 156 0 156 0 -7 -37 c-25 -137 -113 -246 -221
-276 -82 -23 -177 -22 -260 4 -189 58 -279 283 -222 554 25 121 110 225 217
266 81 32 226 32 296 1 59 -27 109 -73 136 -124 l19 -38 121 0 122 0 -7 33
c-13 68 -65 154 -130 215 -114 106 -220 142 -411 141 -83 0 -138 -6 -180 -18z"/>
<path d="M5941 1458 c-5 -13 -103 -282 -219 -598 -116 -316 -213 -583 -217
-592 -7 -17 3 -18 112 -18 l119 0 50 143 50 142 237 3 236 2 14 -27 c8 -16 32
-81 53 -146 l38 -117 118 0 c65 0 118 3 118 7 0 5 -100 281 -222 615 l-222
608 -128 0 c-124 0 -129 -1 -137 -22z m224 -487 c47 -133 85 -246 85 -252 0
-5 -73 -9 -176 -9 -137 0 -175 3 -172 13 3 6 42 121 88 254 46 133 85 241 87
239 2 -1 41 -112 88 -245z"/>
<path d="M6760 865 l0 -615 115 0 115 0 0 615 0 615 -115 0 -115 0 0 -615z"/>
<path d="M3825 1123 c-167 -60 -269 -186 -296 -365 -37 -250 107 -470 339
-519 32 -6 95 -9 145 -6 73 4 99 10 155 38 81 39 160 117 195 191 l25 53 -109
3 -110 3 -43 -44 c-123 -127 -345 -57 -373 119 l-6 34 333 0 332 0 -4 103 c-3
93 -7 110 -37 172 -44 89 -113 157 -199 198 -61 29 -77 32 -182 35 -90 2 -126
-1 -165 -15z m251 -182 c23 -10 53 -34 67 -52 26 -35 50 -103 39 -113 -3 -3
-101 -6 -219 -6 -164 0 -213 3 -213 13 1 25 38 93 68 120 60 57 179 74 258 38z"/>
<path d="M4960 1131 c-57 -18 -110 -53 -148 -96 -42 -48 -52 -45 -52 13 0 71
-3 72 -111 72 l-99 0 0 -435 0 -435 115 0 114 0 3 273 c3 263 4 274 27 320 39
80 135 125 230 107 52 -9 89 -35 116 -81 19 -32 20 -55 23 -326 l3 -293 115 0
114 0 0 279 c0 153 -5 303 -10 332 -22 117 -83 204 -180 255 -39 20 -214 30
-260 15z"/>
</g>
</svg>
